<svg xmlns="http://www.w3.org/2000/svg" viewBox="0 0 24 30" x="0px" y="0px"><path d="m22.53,7.47l-6-6c-.14-.14-.33-.22-.53-.22h-7c-1.83,0-3.36,1.33-3.68,3.07-1.04-.57-2.38-.43-3.26.45-1.07,1.07-1.07,2.82,0,3.89l3.19,3.19v7.14c0,2.07,1.68,3.75,3.75,3.75h10c2.07,0,3.75-1.68,3.75-3.75v-11c0-.2-.08-.39-.22-.53Zm-5.78-3.66l3.44,3.44h-3.44v-3.44Zm-2.36,13.29l-1.72-.57,1.15-1.15.57,1.72Zm-3.09-1.33l-6.23-6.23,1.77-1.77,6.23,6.23-1.77,1.77ZM3.12,5.83c.49-.49,1.28-.49,1.77,0l.88.88-1.77,1.77-.88-.88c-.49-.49-.49-1.28,0-1.77Zm15.88,15.42h-10c-1.24,0-2.25-1.01-2.25-2.25v-5.64l4.05,4.05c.08.08.18.14.29.18l3.29,1.1c.13.04.27.06.4.06.33,0,.64-.13.88-.37.34-.34.45-.83.3-1.28l-1.1-3.29c-.04-.11-.1-.21-.18-.29l-7.94-7.94v-.58c0-1.24,1.01-2.25,2.25-2.25h6.25v5.25c0,.41.34.75.75.75h5.25v10.25c0,1.24-1.01,2.25-2.25,2.25Z"/><text x="0" y="39" fill="#000000" font-size="5px" font-weight="bold" font-family="'Helvetica Neue', Helvetica, Arial-Unicode, Arial, Sans-serif">Created by Arkinasi</text><text x="0" y="44" fill="#000000" font-size="5px" font-weight="bold" font-family="'Helvetica Neue', Helvetica, Arial-Unicode, Arial, Sans-serif">from the Noun Project</text></svg>